<!DOCTYPE svg PUBLIC "-//W3C//DTD SVG 20010904//EN" "http://www.w3.org/TR/2001/REC-SVG-20010904/DTD/svg10.dtd">
<svg version="1.0" xmlns="http://www.w3.org/2000/svg" width="732px" height="732px" viewBox="0 0 7320 7320" preserveAspectRatio="xMidYMid meet">
<g id="layer101" fill="#693e24" stroke="none">
 <path d="M3415 7314 c-778 -63 -1438 -321 -2054 -805 -136 -108 -442 -414 -550 -550 -447 -569 -696 -1163 -787 -1874 -26 -197 -26 -653 0 -850 91 -711 340 -1305 787 -1874 108 -136 414 -442 550 -550 569 -447 1163 -696 1874 -787 106 -14 209 -18 425 -18 216 0 319 4 425 18 711 91 1305 340 1874 787 136 108 442 414 550 550 447 569 696 1163 787 1874 26 197 26 653 0 850 -91 711 -340 1305 -787 1874 -108 136 -414 442 -550 550 -559 439 -1148 690 -1834 782 -145 19 -579 33 -710 23z"/>
 </g>
<g id="layer102" fill="#9d5124" stroke="none">
 <path d="M3415 7314 c-778 -63 -1438 -321 -2054 -805 -136 -108 -442 -414 -550 -550 -447 -569 -696 -1163 -787 -1874 -26 -197 -26 -653 0 -850 91 -711 340 -1305 787 -1874 108 -136 414 -442 550 -550 569 -447 1163 -696 1874 -787 106 -14 209 -18 425 -18 216 0 319 4 425 18 711 91 1305 340 1874 787 136 108 442 414 550 550 447 569 696 1163 787 1874 26 197 26 653 0 850 -91 711 -340 1305 -787 1874 -108 136 -414 442 -550 550 -559 439 -1148 690 -1834 782 -145 19 -579 33 -710 23z m905 -84 c12 -8 9 -10 -12 -10 -15 0 -30 5 -33 10 -8 13 25 13 45 0z m119 -26 c2 -2 -19 -4 -48 -4 -32 0 -50 4 -46 10 5 9 83 4 94 -6z m1336 -581 c178 -128 375 -294 375 -317 0 -6 9 -18 20 -26 11 -8 20 -18 20 -23 0 -5 -14 3 -31 17 l-31 26 -421 0 c-245 0 -436 4 -456 10 -89 25 -151 101 -151 183 0 37 7 53 40 94 63 80 105 91 360 92 l195 1 80 -57z m500 -451 c-5 -5 -75 65 -75 75 0 4 18 -10 40 -32 22 -21 38 -41 35 -43z m78 -76 c74 -83 100 -116 90 -116 -4 0 -26 22 -48 47 -22 26 -57 66 -79 90 -21 24 -35 43 -30 43 5 0 35 -29 67 -64z m157 -189 c0 -6 -9 -2 -20 8 -11 10 -20 23 -20 28 0 6 9 2 20 -8 11 -10 20 -23 20 -28z m27 -32 c8 -8 13 -19 11 -24 -2 -5 -11 2 -21 15 -20 27 -14 32 10 9z m58 -84 c-6 -6 -35 27 -35 39 0 7 9 2 19 -11 11 -13 18 -26 16 -28z m113 -141 c53 -81 106 -170 100 -170 -2 0 -302 0 -668 0 -712 0 -711 -1 -811 51 -86 44 -188 163 -189 221 0 17 43 18 733 20 846 3 742 19 835 -122z m208 -378 c13 -8 54 -81 77 -137 75 -184 97 -240 97 -252 0 -11 -102 -13 -558 -13 -608 0 -627 2 -692 56 -117 99 -67 309 83 344 41 10 978 12 993 2z m-1430 -258 c98 -49 180 -146 218 -257 l22 -62 712 -3 713 -2 18 -43 c47 -111 125 -604 126 -797 l0 -115 -780 -1 c-429 0 -815 1 -857 4 l-78 4 0 61 c0 34 -5 92 -10 128 -5 36 -10 103 -11 150 -3 222 -101 752 -177 958 -7 19 36 8 104 -25z m1740 -2084 c-6 -42 -37 -175 -65 -286 -23 -87 -67 -214 -81 -227 -11 -12 -1536 -22 -1542 -11 -3 5 -2 34 3 64 16 95 39 322 39 387 0 34 5 74 10 89 l11 27 815 -4 816 -4 -6 -35z m-1107 -1947 c-30 -27 -64 -58 -77 -70 -12 -13 -25 -23 -27 -23 -2 0 -23 -18 -46 -40 -23 -22 -49 -40 -58 -39 -13 0 -13 2 -2 6 8 3 25 15 36 27 12 12 53 48 90 81 38 33 78 70 89 83 11 12 26 22 34 22 7 0 -10 -21 -39 -47z m-219 -193 c0 -5 -4 -10 -10 -10 -9 0 -71 -43 -123 -86 -9 -8 -25 -14 -35 -14 -11 1 -8 6 12 17 16 8 39 24 50 35 12 11 33 27 49 36 15 9 27 20 27 24 0 4 7 8 15 8 8 0 15 -4 15 -10z m-295 -200 c-18 -20 -45 -27 -45 -12 0 7 37 28 54 31 5 0 1 -8 -9 -19z m-55 -30 c0 -5 -7 -10 -15 -10 -8 0 -15 -3 -15 -7 0 -9 -48 -33 -64 -33 -11 0 74 58 87 59 4 1 7 -3 7 -9z m-218 -132 c-9 -9 -15 -9 -24 0 -9 9 -7 12 12 12 19 0 21 -3 12 -12z m-42 -18 c-19 -13 -30 -13 -30 0 0 6 10 10 23 10 18 0 19 -2 7 -10z m-60 -30 c-26 -20 -66 -28 -55 -10 3 6 15 10 26 10 10 0 19 5 19 10 0 6 8 10 18 10 14 0 12 -4 -8 -20z m-70 -30 c0 -5 -9 -10 -19 -10 -11 0 -21 -5 -23 -11 -2 -6 -13 -9 -23 -7 -17 3 -16 6 10 20 36 19 55 22 55 8z m-90 -40 c0 -5 -12 -10 -27 -9 -25 0 -26 1 -8 9 27 12 35 12 35 0z m-109 -49 c-12 -8 -51 -4 -51 5 0 2 15 4 33 4 22 0 28 -3 18 -9z"/>
 </g>
<g id="layer103" fill="#8b6b53" stroke="none">
 <path d="M3415 7314 c-605 -49 -1138 -217 -1645 -520 -258 -154 -460 -313 -695 -549 -423 -423 -703 -876 -891 -1442 -52 -156 -69 -224 -39 -155 l14 32 1603 -2 1603 -3 6 -135 c7 -149 25 -220 70 -286 40 -59 119 -127 181 -156 109 -52 114 -52 953 -49 429 1 791 5 805 7 47 9 180 78 180 93 0 8 -9 80 -20 160 -34 248 -79 469 -131 640 -16 52 -27 97 -24 99 2 2 21 -2 42 -8 125 -41 232 -150 277 -283 l22 -62 712 -3 713 -2 18 -43 c47 -111 125 -604 126 -797 l0 -115 -790 0 c-434 1 -2071 2 -3637 3 l-2848 2 -1 128 -2 127 -9 -95 c-14 -142 -2 -529 21 -705 45 -333 124 -630 251 -938 29 -70 54 -126 56 -124 3 2 -3 20 -11 40 -8 20 -15 43 -15 52 0 13 229 15 2184 15 1430 0 2202 -3 2237 -10 62 -12 96 -40 105 -87 8 -43 -22 -78 -80 -94 -29 -8 -665 -11 -2201 -10 l-2160 1 -21 35 c-76 129 -8 -24 85 -190 494 -883 1318 -1521 2286 -1768 339 -87 543 -111 915 -111 216 0 319 4 425 18 711 91 1305 340 1874 787 136 108 442 414 550 550 447 569 696 1163 787 1874 26 197 26 653 0 850 -91 711 -340 1305 -787 1874 -108 136 -414 442 -550 550 -559 439 -1148 690 -1834 782 -145 19 -579 33 -710 23z m905 -84 c12 -8 9 -10 -12 -10 -15 0 -30 5 -33 10 -8 13 25 13 45 0z m119 -26 c2 -2 -19 -4 -48 -4 -32 0 -50 4 -46 10 5 9 83 4 94 -6z m1336 -581 c178 -128 375 -294 375 -317 0 -6 9 -18 20 -26 11 -8 20 -18 20 -23 0 -5 -14 3 -31 17 l-31 26 -421 0 c-245 0 -436 4 -456 10 -89 25 -151 101 -151 183 0 37 7 53 40 94 63 80 105 91 360 92 l195 1 80 -57z m-3258 -379 c55 -41 51 -103 -10 -148 -26 -19 -39 -21 -190 -18 -89 1 -176 7 -194 13 -63 20 -81 86 -38 138 32 38 45 40 242 37 146 -1 165 -4 190 -22z m3758 -72 c-5 -5 -75 65 -75 75 0 4 18 -10 40 -32 22 -21 38 -41 35 -43z m78 -76 c74 -83 100 -116 90 -116 -4 0 -26 22 -48 47 -22 26 -57 66 -79 90 -21 24 -35 43 -30 43 5 0 35 -29 67 -64z m157 -189 c0 -6 -9 -2 -20 8 -11 10 -20 23 -20 28 0 6 9 2 20 -8 11 -10 20 -23 20 -28z m27 -32 c8 -8 13 -19 11 -24 -2 -5 -11 2 -21 15 -20 27 -14 32 10 9z m58 -84 c-6 -6 -35 27 -35 39 0 7 9 2 19 -11 11 -13 18 -26 16 -28z m113 -141 c53 -81 106 -170 100 -170 -2 0 -302 0 -668 0 -712 0 -711 -1 -811 51 -86 44 -188 163 -189 221 0 17 43 18 733 20 846 3 742 19 835 -122z m208 -378 c13 -8 54 -81 77 -137 75 -184 97 -240 97 -252 0 -11 -102 -13 -558 -13 -608 0 -627 2 -692 56 -117 99 -67 309 83 344 41 10 978 12 993 2z m-5965 -92 c28 -33 64 -40 200 -40 134 0 179 11 192 45 6 13 105 15 894 15 881 0 887 0 930 -21 24 -12 56 -37 71 -57 24 -31 27 -44 27 -113 0 -71 -2 -80 -31 -116 -17 -21 -46 -47 -65 -58 -34 -20 -54 -20 -1503 -23 l-1468 -2 7 27 c12 48 125 324 147 358 4 6 110 9 295 7 272 -2 289 -4 304 -22z m4211 -398 c39 -24 48 -39 48 -78 0 -40 -18 -64 -63 -85 -38 -17 -69 -19 -332 -18 -279 0 -292 1 -335 22 -59 29 -77 64 -56 110 18 37 47 58 96 68 19 4 163 7 320 6 277 -2 286 -3 322 -25z m2065 -1851 c-7 -43 -37 -174 -66 -287 -22 -87 -67 -212 -82 -230 -6 -7 -835 -9 -2826 -7 l-2818 4 -60 21 c-74 26 -143 75 -181 129 -42 61 -46 149 -9 224 50 103 156 163 305 174 47 3 1358 7 2914 7 l2828 2 -5 -37z m-1108 -1948 c-30 -27 -64 -58 -77 -70 -12 -13 -25 -23 -27 -23 -2 0 -23 -18 -46 -40 -23 -22 -49 -40 -58 -39 -13 0 -13 2 -2 6 8 3 25 15 36 27 12 12 53 48 90 81 38 33 78 70 89 83 11 12 26 22 34 22 7 0 -10 -21 -39 -47z m-219 -193 c0 -5 -4 -10 -10 -10 -9 0 -71 -43 -123 -86 -9 -8 -25 -14 -35 -14 -11 1 -8 6 12 17 16 8 39 24 50 35 12 11 33 27 49 36 15 9 27 20 27 24 0 4 7 8 15 8 8 0 15 -4 15 -10z m-295 -200 c-18 -20 -45 -27 -45 -12 0 7 37 28 54 31 5 0 1 -8 -9 -19z m-55 -30 c0 -5 -7 -10 -15 -10 -8 0 -15 -3 -15 -7 0 -9 -48 -33 -64 -33 -11 0 74 58 87 59 4 1 7 -3 7 -9z m-218 -132 c-9 -9 -15 -9 -24 0 -9 9 -7 12 12 12 19 0 21 -3 12 -12z m-42 -18 c-19 -13 -30 -13 -30 0 0 6 10 10 23 10 18 0 19 -2 7 -10z m-60 -30 c-26 -20 -66 -28 -55 -10 3 6 15 10 26 10 10 0 19 5 19 10 0 6 8 10 18 10 14 0 12 -4 -8 -20z m-70 -30 c0 -5 -9 -10 -19 -10 -11 0 -21 -5 -23 -11 -2 -6 -13 -9 -23 -7 -17 3 -16 6 10 20 36 19 55 22 55 8z m-90 -40 c0 -5 -12 -10 -27 -9 -25 0 -26 1 -8 9 27 12 35 12 35 0z m-109 -49 c-12 -8 -51 -4 -51 5 0 2 15 4 33 4 22 0 28 -3 18 -9z"/>
 <path d="M3534 2879 c-9 -15 12 -33 30 -26 9 4 16 13 16 22 0 17 -35 21 -46 4z"/>
 <path d="M32 4142 c-8 -57 -11 -106 -9 -109 7 -6 29 161 25 188 -2 13 -9 -23 -16 -79z"/>
 <path d="M4647 3904 c-8 -8 1 -24 14 -24 5 0 9 7 9 15 0 15 -12 20 -23 9z"/>
 </g>
<g id="layer104" fill="#bf8a59" stroke="none">
 <path d="M3420 7314 c-632 -55 -1139 -215 -1650 -520 -258 -154 -460 -313 -695 -549 -301 -300 -509 -588 -691 -953 -68 -138 -166 -370 -162 -384 2 -5 15 22 30 59 32 81 90 213 102 231 6 11 63 12 294 7 260 -5 288 -7 307 -24 39 -36 63 -41 188 -41 132 0 181 10 198 41 9 18 36 19 895 19 958 0 924 2 982 -53 100 -93 61 -267 -70 -321 -33 -14 -201 -16 -1493 -16 l-1457 0 6 33 c7 37 -48 -113 -57 -158 -3 -16 -4 -24 -1 -17 5 9 337 12 1615 12 l1609 0 0 -113 c0 -136 25 -246 69 -311 42 -61 121 -129 183 -158 109 -52 114 -52 953 -49 429 1 791 5 805 7 42 8 160 67 160 80 0 6 -6 49 -14 95 -8 46 -20 125 -26 174 -23 179 -87 467 -129 586 -11 30 -20 73 -19 95 0 36 -44 186 -62 209 -4 6 -13 28 -20 50 -18 58 -138 375 -155 410 -8 17 -35 77 -61 135 -56 127 -165 345 -235 472 -29 51 -78 144 -111 207 -79 152 -271 432 -417 606 -35 42 -61 78 -58 81 13 14 312 -56 502 -117 33 -11 76 -24 95 -30 299 -89 773 -341 1069 -566 166 -126 492 -452 628 -628 121 -156 242 -333 278 -406 15 -30 32 -63 38 -74 6 -11 26 -47 43 -80 57 -108 95 -175 99 -175 18 0 -159 327 -262 484 -490 750 -1258 1305 -2118 1531 -322 85 -546 115 -890 120 -137 1 -270 1 -295 -1z m368 -21 c-75 -2 -201 -2 -280 0 -79 1 -17 3 137 3 154 0 218 -2 143 -3z m-1272 -1049 c56 -41 52 -103 -9 -148 -26 -19 -39 -21 -194 -18 -215 4 -253 19 -253 99 0 34 42 79 80 86 14 3 98 4 187 4 146 -2 164 -4 189 -23z m2646 -1462 c39 -24 48 -39 48 -78 0 -40 -18 -64 -63 -85 -38 -17 -69 -19 -332 -18 -279 0 -292 1 -335 22 -59 29 -77 64 -56 110 18 37 47 58 96 68 19 4 163 7 320 6 277 -2 286 -3 322 -25z"/>
 <path d="M7011 5115 c0 -5 6 -21 14 -35 8 -14 14 -20 14 -15 0 6 -6 21 -14 35 -8 14 -14 21 -14 15z"/>
 <path d="M7064 4990 c2 -8 10 -37 19 -65 9 -27 23 -77 32 -110 19 -69 56 -158 62 -151 5 5 -82 269 -102 311 -9 17 -14 23 -11 15z"/>
 <path d="M7222 4475 c0 -11 4 -31 8 -45 6 -20 8 -21 8 -5 0 11 -4 31 -8 45 -6 20 -8 21 -8 5z"/>
 <path d="M7266 4250 c12 -128 24 -213 30 -219 8 -8 -4 101 -22 199 -10 59 -12 64 -8 20z"/>
 <path d="M42 4210 c0 -19 2 -27 5 -17 2 9 2 25 0 35 -3 9 -5 1 -5 -18z"/>
 <path d="M33 4130 c0 -25 2 -35 4 -22 2 12 2 32 0 45 -2 12 -4 2 -4 -23z"/>
 <path d="M5 3600 c5 -326 33 -547 110 -851 46 -181 144 -465 190 -548 l14 -26 -6 33 -6 32 2185 0 c1407 0 2204 -4 2239 -10 93 -17 140 -97 87 -148 -54 -49 63 -47 -2251 -47 -1193 0 -2172 2 -2176 5 -4 3 -11 14 -14 24 -4 10 -10 16 -13 13 -4 -3 26 -66 66 -139 199 -364 407 -638 694 -915 575 -555 1293 -895 2111 -999 197 -25 653 -25 850 0 170 21 311 48 470 87 129 33 399 118 393 125 -2 2 -40 -7 -84 -21 -43 -14 -85 -25 -91 -25 -17 0 -6 28 55 137 79 140 128 238 198 393 85 187 88 195 114 260 12 30 25 60 30 65 5 6 18 37 30 70 12 33 27 74 34 90 29 67 63 174 150 465 14 47 32 123 41 170 9 47 29 153 46 235 35 173 53 300 45 320 -4 11 -335 14 -2046 15 l-2041 1 -69 25 c-127 48 -200 137 -200 245 0 116 86 218 218 260 l67 21 2063 3 c1134 3 2066 6 2071 9 20 13 20 730 0 750 -3 4 -1257 6 -2787 6 l-2781 0 -4 57 c-3 32 -3 -52 -2 -187z"/>
 <path d="M7314 3660 c0 -102 2 -143 3 -92 2 50 2 134 0 185 -1 50 -3 9 -3 -93z"/>
 <path d="M7302 3370 c0 -19 2 -27 5 -17 2 9 2 25 0 35 -3 9 -5 1 -5 -18z"/>
 <path d="M7295 3320 c-9 -14 -57 -370 -53 -389 2 -9 12 29 21 84 18 103 46 315 41 315 -2 0 -6 -5 -9 -10z"/>
 <path d="M7224 2876 c-3 -21 -4 -39 -1 -42 2 -3 8 11 11 32 4 20 5 38 2 41 -2 3 -8 -11 -12 -31z"/>
 <path d="M3535 2880 c-4 -7 -3 -16 3 -22 14 -14 45 -2 40 15 -6 16 -34 21 -43 7z"/>
 <path d="M7176 2674 c-4 -14 -5 -28 -3 -31 3 -2 8 8 11 23 4 14 5 28 3 31 -3 2 -8 -8 -11 -23z"/>
 <path d="M7078 2384 c-9 -22 -36 -84 -58 -139 -118 -281 -278 -555 -476 -811 -21 -28 -52 -68 -69 -90 -64 -85 -165 -196 -304 -333 -91 -90 -115 -117 -65 -73 326 287 627 682 830 1090 70 141 166 371 161 385 -1 5 -10 -8 -19 -29z"/>
 <path d="M5808 707 c-111 -83 -346 -226 -490 -299 -99 -50 -129 -71 -62 -43 113 47 495 280 589 359 47 39 26 30 -37 -17z"/>
 <path d="M5150 325 c-14 -8 -20 -14 -15 -14 6 0 21 6 35 14 14 8 21 14 15 14 -5 0 -21 -6 -35 -14z"/>
 </g>
<g id="layer105" fill="#cdaf8f" stroke="none">
 <path d="M3390 7310 c-41 -4 80 -7 270 -7 219 0 314 3 260 8 -101 8 -424 8 -530 -1z"/>
 <path d="M4033 7293 c9 -2 25 -2 35 0 9 3 1 5 -18 5 -19 0 -27 -2 -17 -5z"/>
 <path d="M3045 7269 c-726 -126 -1396 -465 -1921 -972 -127 -123 -256 -265 -338 -372 -37 -48 -25 -36 53 52 l37 41 696 0 c689 0 768 3 768 33 0 5 -46 9 -103 9 -119 0 -161 16 -190 71 -20 40 -15 73 16 107 51 55 56 55 387 48 338 -8 420 -1 482 39 21 14 45 39 54 57 22 43 22 119 0 153 -38 58 -82 55 839 55 703 0 847 2 851 14 6 16 -42 99 -136 231 -39 55 -89 128 -111 163 -23 34 -45 62 -50 62 -5 0 -9 7 -9 15 0 20 -5 19 -81 -10 -35 -14 -82 -30 -104 -35 -65 -14 -1712 -16 -1760 -2 -48 14 -72 29 -63 38 13 12 263 94 393 128 115 30 229 53 415 84 42 7 47 9 20 10 -19 0 -84 -8 -145 -19z"/>
 <path d="M4092 7284 c3 -3 41 -9 84 -14 144 -17 367 -69 569 -134 28 -9 66 -21 85 -27 304 -92 773 -341 1069 -566 175 -133 500 -461 647 -653 128 -167 220 -301 258 -380 15 -30 33 -64 39 -75 6 -11 26 -47 43 -80 57 -108 95 -175 99 -175 9 0 -56 133 -125 255 -184 330 -390 598 -662 861 -462 446 -1023 757 -1646 913 -217 54 -482 98 -460 75z"/>
 <path d="M652 5748 c-41 -61 -48 -78 -17 -43 27 31 59 85 51 85 -3 0 -18 -19 -34 -42z"/>
 <path d="M582 5643 c-24 -35 -44 -73 -38 -73 2 0 18 23 35 50 33 54 35 68 3 23z"/>
 <path d="M518 5538 c-22 -34 -42 -74 -31 -63 14 15 55 85 50 85 -3 0 -11 -10 -19 -22z"/>
 <path d="M440 5400 c-11 -22 -18 -40 -15 -40 2 0 14 18 25 40 11 22 18 40 15 40 -2 0 -14 -18 -25 -40z"/>
 <path d="M390 5310 c-11 -23 -25 -51 -29 -63 l-8 -22 296 -3 c275 -2 297 -4 311 -21 25 -31 56 -41 137 -47 106 -8 199 8 233 41 l26 25 885 0 885 0 52 -26 c35 -17 60 -40 81 -71 27 -40 31 -55 31 -114 0 -59 -4 -73 -32 -115 -20 -29 -51 -59 -78 -74 l-45 -25 -1464 -3 c-958 -1 -1468 1 -1476 8 -8 7 -16 -5 -28 -44 -9 -29 -17 -55 -17 -57 0 -2 722 -3 1605 -1 l1604 2 16 53 c31 106 121 214 235 280 97 56 123 58 959 57 421 0 771 0 777 0 8 0 9 10 4 33 -17 64 -46 147 -57 158 -6 6 -646 10 -1971 9 l-1962 0 -52 27 c-48 25 -63 28 -158 28 -96 0 -111 -3 -159 -27 l-53 -28 -265 0 -265 0 6 30 c8 41 0 38 -24 -10z"/>
 <path d="M7066 4981 c10 -37 33 -88 33 -71 0 8 -9 33 -20 55 -10 22 -16 29 -13 16z"/>
 <path d="M7100 4872 c0 -36 78 -240 80 -209 0 12 -71 227 -76 227 -2 0 -4 -8 -4 -18z"/>
 <path d="M7222 4475 c0 -11 4 -31 8 -45 6 -20 8 -21 8 -5 0 11 -4 31 -8 45 -6 20 -8 21 -8 5z"/>
 <path d="M7266 4250 c12 -128 24 -213 29 -219 8 -7 -4 100 -21 199 -10 58 -12 62 -8 20z"/>
 <path d="M4 3655 c0 -170 10 -363 14 -293 l2 28 2788 2 2787 3 3 65 c1 36 -1 108 -5 160 l-8 95 -2785 5 -2785 5 -6 60 c-3 33 -6 -25 -5 -130z"/>
 <path d="M7314 3660 c0 -102 2 -143 3 -92 2 50 2 134 0 185 -1 50 -3 9 -3 -93z"/>
 <path d="M7302 3370 c0 -19 2 -27 5 -17 2 9 2 25 0 35 -3 9 -5 1 -5 -18z"/>
 <path d="M7295 3320 c-7 -12 -55 -354 -54 -385 1 -36 37 157 51 278 8 64 13 117 12 117 -2 0 -6 -5 -9 -10z"/>
 <path d="M20 3265 c0 -25 40 -278 45 -283 3 -3 5 -1 5 4 0 5 211 9 518 9 l517 0 53 28 c90 47 111 109 61 176 -23 31 -44 42 -119 62 -58 16 -1080 19 -1080 4z"/>
 <path d="M2602 3163 c2 -10 10 -18 18 -18 8 0 16 8 18 18 2 12 -3 17 -18 17 -15 0 -20 -5 -18 -17z"/>
 <path d="M2580 3006 c0 -9 7 -16 16 -16 9 0 14 5 12 12 -6 18 -28 21 -28 4z"/>
 <path d="M7224 2876 c-3 -21 -4 -39 -1 -42 2 -3 8 11 11 32 4 20 5 38 2 41 -2 3 -8 -11 -12 -31z"/>
 <path d="M131 2690 c0 -8 4 -24 9 -35 5 -13 9 -14 9 -5 0 8 -4 24 -9 35 -5 13 -9 14 -9 5z"/>
 <path d="M7176 2674 c-4 -14 -5 -28 -3 -31 3 -2 8 8 11 23 4 14 5 28 3 31 -3 2 -8 -8 -11 -23z"/>
 <path d="M151 2620 c0 -8 4 -24 9 -35 5 -13 9 -14 9 -5 0 8 -4 24 -9 35 -5 13 -9 14 -9 5z"/>
 <path d="M7077 2383 c-9 -21 -35 -83 -57 -138 -118 -281 -278 -555 -476 -811 -21 -28 -52 -68 -69 -90 -63 -84 -164 -195 -299 -329 -78 -77 -123 -124 -101 -105 73 63 301 294 366 370 261 304 466 646 626 1043 20 48 33 90 31 93 -3 2 -12 -13 -21 -33z"/>
 <path d="M395 2000 c9 -16 18 -30 21 -30 2 0 -2 14 -11 30 -9 17 -18 30 -21 30 -2 0 2 -13 11 -30z"/>
 <path d="M465 1875 c295 -537 773 -1031 1305 -1349 457 -273 926 -434 1465 -502 197 -25 653 -25 850 0 171 21 312 48 470 87 142 36 339 98 332 106 -3 2 -30 -3 -60 -13 -53 -16 -56 -16 -73 0 -16 17 -81 17 -1053 15 l-1036 -3 -64 23 c-36 12 -89 38 -118 58 -164 109 -229 280 -172 454 37 113 109 188 244 254 95 47 140 48 1385 43 641 -3 1181 -3 1202 -1 34 5 37 8 58 66 12 34 27 76 34 92 28 65 62 171 147 455 35 118 59 234 49 244 -4 4 -1123 7 -2485 7 -2372 -2 -2478 -1 -2498 16 -15 13 -10 -2 18 -52z"/>
 <path d="M5808 707 c-111 -83 -346 -226 -490 -299 -99 -50 -129 -71 -62 -43 111 46 494 280 589 359 47 40 26 30 -37 -17z"/>
 </g>
<g id="layer106" fill="#cfc9c3" stroke="none">
 <path d="M3573 7313 c53 -2 141 -2 195 0 53 1 9 3 -98 3 -107 0 -151 -2 -97 -3z"/>
 <path d="M4560 7200 c8 -5 24 -10 34 -10 26 0 18 6 -19 14 -22 5 -26 4 -15 -4z"/>
 <path d="M4635 7180 c11 -5 27 -9 35 -9 9 0 8 4 -5 9 -11 5 -27 9 -35 9 -9 0 -8 -4 5 -9z"/>
 <path d="M4726 7155 c17 -7 44 -16 60 -20 25 -4 24 -3 -6 8 -19 8 -46 17 -60 20 -19 5 -17 3 6 -8z"/>
 <path d="M4890 7102 c8 -5 26 -13 40 -16 17 -5 20 -4 10 2 -8 5 -26 13 -40 16 -17 5 -20 4 -10 -2z"/>
 <path d="M5150 6995 c14 -8 30 -14 35 -14 6 0 -1 6 -15 14 -14 8 -29 14 -35 14 -5 0 1 -6 15 -14z"/>
 <path d="M2018 6934 c-27 -13 -48 -27 -48 -29 0 -3 23 6 50 20 28 14 50 28 50 30 0 7 1 7 -52 -21z"/>
 <path d="M5241 6956 c10 -9 109 -56 109 -51 0 5 -95 55 -106 55 -4 0 -5 -2 -3 -4z"/>
 <path d="M5360 6895 c0 -2 23 -16 50 -30 28 -14 50 -23 50 -20 0 2 -22 16 -50 30 -27 14 -50 23 -50 20z"/>
 <path d="M5470 6836 c0 -3 14 -12 30 -21 17 -9 30 -13 30 -11 0 3 -13 12 -30 21 -16 9 -30 13 -30 11z"/>
 <path d="M6180 6305 c19 -19 36 -35 39 -35 3 0 -10 16 -29 35 -19 19 -36 35 -39 35 -3 0 10 -16 29 -35z"/>
 <path d="M6855 5430 c9 -16 18 -30 21 -30 2 0 -2 14 -11 30 -9 17 -18 30 -21 30 -2 0 2 -13 11 -30z"/>
 <path d="M6920 5310 c11 -22 23 -40 25 -40 3 0 -4 18 -15 40 -11 22 -23 40 -25 40 -3 0 4 -18 15 -40z"/>
 <path d="M6650 1560 c-12 -16 -19 -30 -16 -30 2 0 14 14 26 30 12 17 19 30 16 30 -2 0 -14 -13 -26 -30z"/>
 <path d="M6590 1480 c-12 -16 -19 -30 -16 -30 2 0 14 14 26 30 12 17 19 30 16 30 -2 0 -14 -13 -26 -30z"/>
 </g>

</svg>